PathFileType	4	(X/Y/Z)	/Users/itak/Documents/Research/Walk-IL/dataset/trc/00356_00011.trc
DataRate	CameraRate	NumFrames	NumMarkers	Units	OrigDataRate	OrigDataStartFrame	OrigNumFrames
100.000000	100.000000	4	54	mm	100.000000	637	729
Frame#	Time	RPSI			LPSI			STRN			T10			C7			CLAV			RBAK			LBAK			LSHO			LUPA			LAEL			LAOL			LWTS			LWPS			LFRA			LIFD			LHPS			LHTS			RSHO			RUPA			RAEL			RAOL			RWTS			RWPS			RFRA			RIFD			RHTS			RHPS			RBHD			LFHD			RFHD			LBHD			LHIP			RHIP			RASI			LASI			LKNE			LTHI			LANK			LTIP			LTOE			LMT1			LMT5			LHEE			RKNE			RANK			RTIP			RTOE			RMT1			RMT5			RHEE			L3			RTHI			*53			
		X1	Y1	Z1	X2	Y2	Z2	X3	Y3	Z3	X4	Y4	Z4	X5	Y5	Z5	X6	Y6	Z6	X7	Y7	Z7	X8	Y8	Z8	X9	Y9	Z9	X10	Y10	Z10	X11	Y11	Z11	X12	Y12	Z12	X13	Y13	Z13	X14	Y14	Z14	X15	Y15	Z15	X16	Y16	Z16	X17	Y17	Z17	X18	Y18	Z18	X19	Y19	Z19	X20	Y20	Z20	X21	Y21	Z21	X22	Y22	Z22	X23	Y23	Z23	X24	Y24	Z24	X25	Y25	Z25	X26	Y26	Z26	X27	Y27	Z27	X28	Y28	Z28	X29	Y29	Z29	X30	Y30	Z30	X31	Y31	Z31	X32	Y32	Z32	X33	Y33	Z33	X34	Y34	Z34	X35	Y35	Z35	X36	Y36	Z36	X37	Y37	Z37	X38	Y38	Z38	X39	Y39	Z39	X40	Y40	Z40	X41	Y41	Z41	X42	Y42	Z42	X43	Y43	Z43	X44	Y44	Z44	X45	Y45	Z45	X46	Y46	Z46	X47	Y47	Z47	X48	Y48	Z48	X49	Y49	Z49	X50	Y50	Z50	X51	Y51	Z51	X52	Y52	Z52	X53	Y53	Z53	X54	Y54	Z54	

638	6.37	427.6088562011719	975.3130493164062	793.2239379882812	417.4674072265625	974.3692626953125	921.8803100585938	198.091552734375	1225.1708984375	854.6066284179688	437.2779846191406	1153.076782226562	868.7430419921875	397.902099609375	1401.608520507812	883.747314453125	241.5735168457031	1350.59716796875	862.181884765625	453.3378601074219	1263.652954101562	818.5638427734375	398.6229248046875	1362.702514648438	985.0474853515625	310.6055908203125	1384.359008789062	1032.0068359375	317.2299499511719	1267.345458984375	1105.45849609375	280.9948425292969	1068.2529296875	1138.916870117188	344.4602661132812	1042.831176757812	1088.872192382812	129.5585784912109	864.0616455078125	1101.328979492188	165.9539794921875	840.8107299804688	1155.654907226562	245.4913330078125	969.3286743164062	1151.828491210938	77.20362091064453	718.2251586914062	1102.923583984375	143.8266906738281	773.3021240234375	1151.52587890625	92.18655395507812	795.2742919921875	1120.370239257812	358.9676208496094	1392.384887695312	717.0492553710938	378.9733276367188	1330.196655273438	653.856201171875	384.0701904296875	1066.573608398438	603.299560546875	414.1632385253906	1052.171630859375	692.2672729492188	247.7787780761719	850.416748046875	625.7365112304688	286.8275451660156	835.4782104492188	561.4470825195312	356.2938842773438	1000.850952148438	586.9227294921875	226.4857940673828	678.2734375	610.150146484375	211.7999420166016	751.5999145507812	604.339599609375	264.2384033203125	752.0635375976562	558.3276977539062	350.022705078125	1614.836303710938	796.8659057617188	168.5567321777344	1611.000610351562	898.9733276367188	187.512939453125	1612.243041992188	799.6249389648438	350.1480407714844	1610.487548828125	941.7272338867188	322.6662292480469	917.72509765625	1018.631591796875	353.0477905273438	928.8992309570312	679.039306640625	246.7159729003906	960.3711547851562	715.2451782226562	208.2807769775391	947.9407348632812	952.3785400390625	234.8414764404297	465.6333312988281	1013.241271972656	247.6167449951172	605.2969360351562	1017.803894042969	325.9602966308594	45.40041351318359	1008.836059570312	272.0442504882812	246.5702362060547	1023.455810546875	114.6050415039062	42.08210372924805	964.7138061523438	179.0213470458984	30.12038803100586	916.0238037109375	202.0894775390625	39.67655944824219	1029.1259765625	352.468994140625	40.3438720703125	938.140380859375	246.7487182617188	467.2207336425781	661.09423828125	347.9036254882812	61.1904182434082	660.2471313476562	251.9358978271484	349.5437622070312	663.45263671875	153.911865234375	67.80378723144531	705.4620971679688	209.1069793701172	50.21062850952148	745.0809326171875	247.846923828125	51.3099250793457	637.0074462890625	397.8688659667969	60.36106109619141	708.4692993164062	423.9697265625	1033.007568359375	855.7601318359375	259.0653381347656	729.8102416992188	653.1643676757812	nan	nan	nan	
639	6.38	424.9493408203125	975.1068725585938	793.4568481445312	414.6153869628906	974.2050170898438	922.0892944335938	196.0439605712891	1225.231689453125	854.9466552734375	435.1253967285156	1152.645874023438	868.7645263671875	396.341796875	1401.120239257812	884.2265625	239.8864135742188	1350.492309570312	862.6932373046875	451.468994140625	1263.1796875	818.6865234375	397.0660400390625	1362.052490234375	985.4711303710938	309.151123046875	1383.796875	1032.549438476562	315.4449462890625	1266.458618164062	1105.613403320312	278.3489074707031	1067.386474609375	1138.246826171875	341.99169921875	1041.955200195312	1088.329467773438	126.4239501953125	863.88134765625	1098.447143554688	161.8290405273438	840.50830078125	1153.374145507812	242.3511962890625	968.5929565429688	1150.469482421875	71.64490509033203	717.1776733398438	1098.194946289062	139.7544860839844	772.8558349609375	1148.484130859375	88.64847564697266	795.0792236328125	1116.697509765625	357.1996459960938	1392.231323242188	717.48876953125	376.9350280761719	1329.992553710938	654.1895751953125	381.1545104980469	1066.29638671875	603.873779296875	411.3905639648438	1051.933715820312	692.8035278320312	245.3417205810547	849.766845703125	626.4232177734375	284.3846740722656	834.9249267578125	562.1025390625	353.3682861328125	1000.546875	587.5729370117188	224.5227355957031	677.5521850585938	610.92578125	209.6662139892578	750.8101806640625	605.1229248046875	262.0443115234375	751.4151000976562	559.0771484375	348.7460327148438	1614.534423828125	797.4898071289062	167.2452392578125	1610.988525390625	899.4950561523438	186.2287445068359	1612.21484375	800.1849975585938	348.8222351074219	1610.203491210938	942.3510131835938	319.5162658691406	917.6554565429688	1018.640686035156	350.6076049804688	928.3198852539062	679.2808837890625	244.1669006347656	959.912109375	714.9849243164062	205.3730773925781	947.8975830078125	952.2056274414062	233.6958770751953	465.5669860839844	1013.0927734375	245.4094390869141	605.0610961914062	1017.642883300781	325.9241943359375	45.48319625854492	1008.784301757812	271.4867248535156	246.5534515380859	1023.398986816406	114.6767501831055	42.0754280090332	964.7621459960938	179.0077667236328	30.05345916748047	915.9692993164062	202.0383758544922	39.72034072875977	1029.07373046875	352.46142578125	40.36943435668945	938.0641479492188	248.0938110351562	465.9307861328125	661.23095703125	338.5006103515625	57.84393310546875	659.2090454101562	250.0810089111328	348.6808471679688	663.6915893554688	144.6467590332031	66.55507659912109	705.8037719726562	200.2039031982422	48.84114074707031	744.8071899414062	238.1494903564453	49.19387817382812	636.6778564453125	388.7066650390625	56.29667663574219	707.1912841796875	421.2822875976562	1032.512573242188	855.7079467773438	258.6319885253906	728.8623657226562	652.894775390625	nan	nan	nan	
640	6.390000000000001	422.3821105957031	974.756103515625	793.5149536132812	411.863525390625	973.9586791992188	922.1349487304688	194.0928039550781	1225.239135742188	855.1766357421875	433.0599060058594	1152.198364257812	868.5844116210938	394.8945617675781	1400.568481445312	884.5402221679688	238.3000183105469	1350.347045898438	863.0961303710938	449.7117919921875	1262.694458007812	818.5487670898438	395.667724609375	1361.3046875	985.7197875976562	307.8753356933594	1383.145629882812	1032.963256835938	313.8721008300781	1265.464233398438	1105.613403320312	275.9409484863281	1066.418579101562	1137.352905273438	339.6360473632812	1040.93994140625	1087.459228515625	123.6165390014648	863.5079956054688	1095.534301757812	158.1093444824219	840.00830078125	1150.953979492188	239.5216064453125	967.721923828125	1148.922973632812	66.62792205810547	716.0095825195312	1093.504638671875	136.1634521484375	772.2290649414062	1145.364013671875	85.61225128173828	794.5853271484375	1112.958862304688	355.45703125	1392.068969726562	717.7567749023438	374.8716125488281	1329.768798828125	654.3319091796875	378.1551208496094	1065.994995117188	604.2515869140625	408.6128540039062	1051.659301757812	693.1192016601562	242.8340148925781	849.10107421875	627.0274047851562	281.8137512207031	834.3651123046875	562.6484375	350.341064453125	1000.226745605469	588.053466796875	222.4633178710938	676.8256225585938	611.638427734375	207.4614868164062	750.0123291015625	605.8742065429688	259.7134704589844	750.75341796875	559.7304077148438	347.5639953613281	1614.187255859375	798.0073852539062	166.06787109375	1610.947265625	900.0023803710938	185.0320739746094	1612.18115234375	800.7220458984375	347.6769409179688	1609.859741210938	942.8732299804688	316.4925842285156	917.6679077148438	1018.596069335938	348.2662963867188	927.5899658203125	679.3110961914062	241.7035064697266	959.3546752929688	714.5911865234375	202.5120544433594	947.8800659179688	951.8936157226562	232.6645965576172	465.512451171875	1012.907531738281	243.3814544677734	604.8289184570312	1017.427673339844	325.8930053710938	45.55768966674805	1008.739562988281	271.0312805175781	246.5522155761719	1023.329040527344	114.7360153198242	42.06512069702148	964.7990112304688	178.9966583251953	29.99313926696777	915.9150390625	201.9843444824219	39.76385498046875	1029.022338867188	352.4521484375	40.37839126586914	937.994140625	249.0208892822266	464.7344665527344	661.3291015625	330.3369445800781	55.21389770507812	658.1907958984375	248.1985626220703	347.9563598632812	663.9817504882812	136.7464294433594	64.41384124755859	706.2252807617188	192.7257690429688	47.16676330566406	744.7525024414062	229.7989501953125	46.98153305053711	636.4660034179688	380.7751770019531	53.33127212524414	705.93212890625	418.77783203125	1031.978515625	855.48095703125	258.052734375	727.8446044921875	652.6507568359375	nan	nan	nan	
641	6.4	419.9162902832031	974.2703857421875	793.4193115234375	409.2051696777344	973.6397094726562	922.037109375	192.2571105957031	1225.2041015625	855.2875366210938	431.1059875488281	1151.752319335938	868.226318359375	393.5563049316406	1399.973999023438	884.6927490234375	236.8160095214844	1350.176391601562	863.3875732421875	448.0676574707031	1262.213134765625	818.1724853515625	394.4200744628906	1360.4873046875	985.7963256835938	306.7610168457031	1382.415283203125	1033.250732421875	312.4978332519531	1264.375	1105.459716796875	273.7538757324219	1065.35888671875	1136.2412109375	337.3759460449219	1039.790161132812	1086.279418945312	121.1273651123047	862.9312744140625	1092.60107421875	154.8166961669922	839.3067626953125	1148.400268554688	236.9891967773438	966.7152709960938	1147.2021484375	62.35707855224609	714.80859375	1089.0244140625	133.0476531982422	771.4186401367188	1142.18701171875	83.10545349121094	793.7683715820312	1109.16455078125	353.7553405761719	1391.90771484375	717.8573608398438	372.8044128417969	1329.540771484375	654.2933349609375	375.07421875	1065.68115234375	604.4334106445312	405.8363952636719	1051.356323242188	693.2086181640625	240.2629852294922	848.4328002929688	627.549072265625	279.1201477050781	833.8102416992188	563.0806884765625	347.2161865234375	999.8994140625	588.3616333007812	220.3247375488281	676.107421875	612.284912109375	205.1890869140625	749.2222900390625	606.5855712890625	257.2560424804688	750.0926513671875	560.2788696289062	346.4772338867188	1613.825439453125	798.4146728515625	165.0154571533203	1610.890625	900.4921875	183.9271240234375	1612.157592773438	801.2362670898438	346.7095031738281	1609.479614257812	943.2994995117188	313.5997314453125	917.7879638671875	1018.524780273438	346.0584411621094	926.7404174804688	679.1267700195312	239.336669921875	958.7252197265625	714.0684204101562	199.7078094482422	947.9037475585938	951.4421997070312	231.7761077880859	465.4696960449219	1012.685363769531	241.5480651855469	604.6214599609375	1017.169006347656	325.866455078125	45.62427520751953	1008.703308105469	270.6957397460938	246.5756530761719	1023.248291015625	114.7741241455078	42.05200958251953	964.8169555664062	178.9896850585938	29.94554328918457	915.8677368164062	201.9347991943359	39.80442810058594	1028.973022460938	352.442138671875	40.37648773193359	937.9345092773438	249.4954376220703	463.6450500488281	661.3910522460938	323.5918884277344	53.26249694824219	657.2512817382812	246.3504028320312	347.3543090820312	664.310546875	130.3278961181641	61.45988464355469	706.6812133789062	186.7309875488281	45.23062515258789	744.9466552734375	222.9768981933594	44.7032356262207	636.3648681640625	374.2479553222656	51.38481903076172	704.7828979492188	416.4549255371094	1031.423461914062	855.1104125976562	257.2679138183594	726.7962036132812	652.4454956054688	nan	nan	nan	
